<svg xmlns="http://www.w3.org/2000/svg" width="1200" height="380" viewBox="0 0 1200 380" xmlns:c2pa="http://c2pa.org/manifest"><metadata><c2pa:manifest>AAAWgmp1bWIAAAAeanVtZGMycGEAEQAQgAAAqgA4m3EDYzJwYQAAABZcanVtYgAAAEdqdW1kYzJtYQARABCAAACqADibcQN1cm46YzJwYTozNzI2YmVkNi04MTU1LTQ5MzMtYTk4Zi1iMmQ1YWY1NjgzMDYAAAADl2p1bWIAAAApanVtZGMyYXMAEQAQgAAAqgA4m3EDYzJwYS5hc3NlcnRpb25zAAAAALxqdW1iAAAARGp1bWRjYm9yABEAEIAAAKoAOJtxE2MycGEuaW5ncmVkaWVudC52MwAAAAAYYzJzaC0e2CNPg9eFwRqMNNFShakAAABwY2JvcqNpZGM6Zm9ybWF0bWltYWdlL3N2Zyt4bWxqaW5zdGFuY2VJRHgseG1wOmlpZDozMmRmN2E3MS1lMTc5LTQ1NmQtODUxMC02YTE2NDYxYzcyMDJscmVsYXRpb25zaGlwaHBhcmVudE9mAAAB4mp1bWIAAABBanVtZGNib3IAEQAQgAAAqgA4m3ETYzJwYS5hY3Rpb25zLnYyAAAAABhjMnNoplX/Y2pTKznndyNkIogW8QAAAZljYm9yomdhY3Rpb25zgqJmYWN0aW9ua2MycGEub3BlbmVkanBhcmFtZXRlcnOha2luZ3JlZGllbnRzgaJjdXJseC1zZWxmI2p1bWJmPWMycGEuYXNzZXJ0aW9ucy9jMnBhLmluZ3JlZGllbnQudjNkaGFzaFggVJXhxg7EiGaloxR0VCdp/gpbk8Koh//8sp+yClZAPxykZmFjdGlvbngdY29tLmFudGhyb3BpYy5jbGF1ZGUucHJvdmlkZWRqcGFyYW1ldGVyc6F4H2NvbS5hbnRocm9waWMub3JpZ2luLWNvbmZpZGVuY2VndW5rbm93bmtkZXNjcmlwdGlvbnhmQ2xhdWRlIHByb3ZpZGVkIHRoaXMgZmlsZSBhdCB0aGUgcmVxdWVzdCBvZiBhIHVzZXIgYW5kIG1heSBoYXZlIGNyZWF0ZWQgb3IgbW9kaWZpZWQgdGhlIGZpbGUgY29udGVudHMubXNvZnR3YXJlQWdlbnShZG5hbWVmQ2xhdWRlcmFsbEFjdGlvbnNJbmNsdWRlZPUAAADIanVtYgAAAEBqdW1kY2JvcgARABCAAACqADibcRNjMnBhLmhhc2guZGF0YQAAAAAYYzJzaAxdMscUIVw9diqYmVtbNyMAAACAY2JvcqVjYWxnZnNoYTI1NmNwYWRNAAAAAAAAAAAAAAAAAGRoYXNoWCDx6Z/QzO3rJ6Y9MfzW0HZZMwDH06OZr/QkEVKvYJgWd2RuYW1lbmp1bWJmIG1hbmlmZXN0amV4Y2x1c2lvbnOBomVzdGFydBiYZmxlbmd0aBkeBAAAAj5qdW1iAAAAJ2p1bWRjMmNsABEAEIAAAKoAOJtxA2MycGEuY2xhaW0udjIAAAACD2Nib3KlY2FsZ2ZzaGEyNTZpc2lnbmF0dXJleE1zZWxmI2p1bWJmPS9jMnBhL3VybjpjMnBhOjM3MjZiZWQ2LTgxNTUtNDkzMy1hOThmLWIyZDVhZjU2ODMwNi9jMnBhLnNpZ25hdHVyZWppbnN0YW5jZUlEeCx4bXA6aWlkOjEyODI5Y2JjLTZhNWEtNDRhMC1hYzczLWFmOGM0ZDZjZjlkMXJjcmVhdGVkX2Fzc2VydGlvbnODomN1cmx4LXNlbGYjanVtYmY9YzJwYS5hc3NlcnRpb25zL2MycGEuaW5ncmVkaWVudC52M2RoYXNoWCBUleHGDsSIZqWjFHRUJ2n+CluTwqiH//yyn7IKVkA/HKJjdXJseCpzZWxmI2p1bWJmPWMycGEuYXNzZXJ0aW9ucy9jMnBhLmFjdGlvbnMudjJkaGFzaFggk8jAE1ix8VlvpzEL8B1eGxwWMHBuK66SvfWhLNpPYqKiY3VybHgpc2VsZiNqdW1iZj1jMnBhLmFzc2VydGlvbnMvYzJwYS5oYXNoLmRhdGFkaGFzaFggUm9BeDLLjY5u1laeV0tk3vsXqZp0Sc9sxVmJy2q6nlN0Y2xhaW1fZ2VuZXJhdG9yX2luZm+jZG5hbWVvQW50aHJvcGljIEZpbGVzZ3ZlcnNpb25lMS4wLjBrc3BlY1ZlcnNpb25lMi40LjAAABA4anVtYgAAAChqdW1kYzJjcwARABCAAACqADibcQNjMnBhLnNpZ25hdHVyZQAAABAIY2JvctKEWQISogEmGCFZAgowggIGMIIBjaADAgECAhRA5aAK7sI50L64g/oGQgU9Z1UTADAKBggqhkjOPQQDAzBJMRcwFQYDVQQKEw5BbnRocm9waWMsIFBCQzEuMCwGA1UEAxMlQW50aHJvcGljIENvbnRlbnQgQ3JlZGVudGlhbHMgUm9vdCBDQTAeFw0yNjA4MDcxODQzNTZaFw0yODA4MDYxOTQzNTZaMEQxFzAVBgNVBAoTDkFudGhyb3BpYywgUEJDMSkwJwYDVQQDEyBBbnRocm9waWMgQ2xhdWRlIENvbnRlbnQgU2lnbmluZzBZMBMGByqGSM49AgEGCCqGSM49AwEHA0IABJh6CmvLUBgFFNU0vUKlOVtE6djd17L5SuwX0LemFisBM3dkd/3cyjxFA3Qo5S46fX0/ihY0VZ7mfb9KF703t5OjWDBWMA4GA1UdDwEB/wQEAwIHgDAVBgNVHSUEDjAMBgorBgEEAYPoXgIBMAwGA1UdEwEB/wQCMAAwHwYDVR0jBBgwFoAUzlHiBIFOZFsj+OPEz5o+nMHXXMIwCgYIKoZIzj0EAwMDZwAwZAIwMXMdFJ4BetLLVY7ORuE9noqbbAZOZn/aArXyTwFAZfKrPzxF2vPoJNf1+UCdg1XGAjBwX1zd9WGqYkqmL5SFqw1QySjr1zJfpJM9+1rdDwSPLMOPOjKuiXjoU/pUUeG9RwmhY3BhZFkNngAAAAAAAAAAAAAAAAAAAAAAAAAAAAAAAAAAAAAAAAAAAAAAAAAAAAAAAAAAAAAAAAAAAAAAAAAAAAAAAAAAAAAAAAAAAAAAAAAAAAAAAAAAAAAAAAAAAAAAAAAAAAAAAAAAAAAAAAAAAAAAAAAAAAAAAAAAAAAAAAAAAAAAAAAAAAAAAAAAAAAAAAAAAAAAAAAAAAAAAAAAAAAAAAAAAAAAAAAAAAAAAAAAAAAAAAAAAAAAAAAAAAAAAAAAAAAAAAAAAAAAAAAAAAAAAAAAAAAAAAAAAAAAAAAAAAAAAAAAAAAAAAAAAAAAAAAAAAAAAAAAAAAAAAAAAAAAAAAAAAAAAAAAAAAAAAAAAAAAAAAAAAAAAAAAAAAAAAAAAAAAAAAAAAAAAAAAAAAAAAAAAAAAAAAAAAAAAAAAAAAAAAAAAAAAAAAAAAAAAAAAAAAAAAAAAAAAAAAAAAAAAAAAAAAAAAAAAAAAAAAAAAAAAAAAAAAAAAAAAAAAAAAAAAAAAAAAAAAAAAAAAAAAAAAAAAAAAAAAAAAAAAAAAAAAAAAAAAAAAAAAAAAAAAAAAAAAAAAAAAAAAAAAAAAAAAAAAAAAAAAAAAAAAAAAAAAAAAAAAAAAAAAAAAAAAAAAAAAAAAAAAAAAAAAAAAAAAAAAAAAAAAAAAAAAAAAAAAAAAAAAAAAAAAAAAAAAAAAAAAAAAAAAAAAAAAAAAAAAAAAAAAAAAAAAAAAAAAAAAAAAAAAAAAAAAAAAAAAAAAAAAAAAAAAAAAAAAAAAAAAAAAAAAAAAAAAAAAAAAAAAAAAAAAAAAAAAAAAAAAAAAAAAAAAAAAAAAAAAAAAAAAAAAAAAAAAAAAAAAAAAAAAAAAAAAAAAAAAAAAAAAAAAAAAAAAAAAAAAAAAAAAAAAAAAAAAAAAAAAAAAAAAAAAAAAAAAAAAAAAAAAAAAAAAAAAAAAAAAAAAAAAAAAAAAAAAAAAAAAAAAAAAAAAAAAAAAAAAAAAAAAAAAAAAAAAAAAAAAAAAAAAAAAAAAAAAAAAAAAAAAAAAAAAAAAAAAAAAAAAAAAAAAAAAAAAAAAAAAAAAAAAAAAAAAAAAAAAAAAAAAAAAAAAAAAAAAAAAAAAAAAAAAAAAAAAAAAAAAAAAAAAAAAAAAAAAAAAAAAAAAAAAAAAAAAAAAAAAAAAAAAAAAAAAAAAAAAAAAAAAAAAAAAAAAAAAAAAAAAAAAAAAAAAAAAAAAAAAAAAAAAAAAAAAAAAAAAAAAAAAAAAAAAAAAAAAAAAAAAAAAAAAAAAAAAAAAAAAAAAAAAAAAAAAAAAAAAAAAAAAAAAAAAAAAAAAAAAAAAAAAAAAAAAAAAAAAAAAAAAAAAAAAAAAAAAAAAAAAAAAAAAAAAAAAAAAAAAAAAAAAAAAAAAAAAAAAAAAAAAAAAAAAAAAAAAAAAAAAAAAAAAAAAAAAAAAAAAAAAAAAAAAAAAAAAAAAAAAAAAAAAAAAAAAAAAAAAAAAAAAAAAAAAAAAAAAAAAAAAAAAAAAAAAAAAAAAAAAAAAAAAAAAAAAAAAAAAAAAAAAAAAAAAAAAAAAAAAAAAAAAAAAAAAAAAAAAAAAAAAAAAAAAAAAAAAAAAAAAAAAAAAAAAAAAAAAAAAAAAAAAAAAAAAAAAAAAAAAAAAAAAAAAAAAAAAAAAAAAAAAAAAAAAAAAAAAAAAAAAAAAAAAAAAAAAAAAAAAAAAAAAAAAAAAAAAAAAAAAAAAAAAAAAAAAAAAAAAAAAAAAAAAAAAAAAAAAAAAAAAAAAAAAAAAAAAAAAAAAAAAAAAAAAAAAAAAAAAAAAAAAAAAAAAAAAAAAAAAAAAAAAAAAAAAAAAAAAAAAAAAAAAAAAAAAAAAAAAAAAAAAAAAAAAAAAAAAAAAAAAAAAAAAAAAAAAAAAAAAAAAAAAAAAAAAAAAAAAAAAAAAAAAAAAAAAAAAAAAAAAAAAAAAAAAAAAAAAAAAAAAAAAAAAAAAAAAAAAAAAAAAAAAAAAAAAAAAAAAAAAAAAAAAAAAAAAAAAAAAAAAAAAAAAAAAAAAAAAAAAAAAAAAAAAAAAAAAAAAAAAAAAAAAAAAAAAAAAAAAAAAAAAAAAAAAAAAAAAAAAAAAAAAAAAAAAAAAAAAAAAAAAAAAAAAAAAAAAAAAAAAAAAAAAAAAAAAAAAAAAAAAAAAAAAAAAAAAAAAAAAAAAAAAAAAAAAAAAAAAAAAAAAAAAAAAAAAAAAAAAAAAAAAAAAAAAAAAAAAAAAAAAAAAAAAAAAAAAAAAAAAAAAAAAAAAAAAAAAAAAAAAAAAAAAAAAAAAAAAAAAAAAAAAAAAAAAAAAAAAAAAAAAAAAAAAAAAAAAAAAAAAAAAAAAAAAAAAAAAAAAAAAAAAAAAAAAAAAAAAAAAAAAAAAAAAAAAAAAAAAAAAAAAAAAAAAAAAAAAAAAAAAAAAAAAAAAAAAAAAAAAAAAAAAAAAAAAAAAAAAAAAAAAAAAAAAAAAAAAAAAAAAAAAAAAAAAAAAAAAAAAAAAAAAAAAAAAAAAAAAAAAAAAAAAAAAAAAAAAAAAAAAAAAAAAAAAAAAAAAAAAAAAAAAAAAAAAAAAAAAAAAAAAAAAAAAAAAAAAAAAAAAAAAAAAAAAAAAAAAAAAAAAAAAAAAAAAAAAAAAAAAAAAAAAAAAAAAAAAAAAAAAAAAAAAAAAAAAAAAAAAAAAAAAAAAAAAAAAAAAAAAAAAAAAAAAAAAAAAAAAAAAAAAAAAAAAAAAAAAAAAAAAAAAAAAAAAAAAAAAAAAAAAAAAAAAAAAAAAAAAAAAAAAAAAAAAAAAAAAAAAAAAAAAAAAAAAAAAAAAAAAAAAAAAAAAAAAAAAAAAAAAAAAAAAAAAAAAAAAAAAAAAAAAAAAAAAAAAAAAAAAAAAAAAAAAAAAAAAAAAAAAAAAAAAAAAAAAAAAAAAAAAAAAAAAAAAAAAAAAAAAAAAAAAAAAAAAAAAAAAAAAAAAAAAAAAAAAAAAAAAAAAAAAAAAAAAAAAAAAAAAAAAAAAAAAAAAAAAAAAAAAAAAAAAAAAAAAAAAAAAAAAAAAAAAAAAAAAAAAAAAAAAAAAAAAAAAAAAAAAAAAAAAAAAAAAAAAAAAAAAAAAAAAAAAAAAAAAAAAAAAAAAAAAAAAAAAAAAAAAAAAAAAAAAAAAAAAAAAAAAAAAAAAAAAAAAAAAAAAAAAAAAAAAAAAAAAAAAAAAAAAAAAAAAAAAAAAAAAAAAAAAAAAAAAAAAAAAAAAAAAAAAAAAAAAAAAAAAAAAAAAAAAAAAAAAAAAAAAAAAAAAAAAAAAAAAAAAAAAAAAAAAAAAAAAAAAAAAAAAAAAAAAAAAAAAAAAAAAAAAAAAAAAAAAAAAAAAAAAAAAAAAAAAAAAAAAAAAAAAAAAAAAAAAAAAAAAAAAAAAAAAAAAAAAAAAAAAAAAAAAAAAAAAAAAAAAAAAAAAAAAAAAAAAAAAAAAAAAAAAAAAAAAAAAAAAAAAAAAAAAAAAAAAAAAAAAAAAAAAAAAAAAAAAAAAAAAAAAAAAAAAAAAAAAAAAAAAAAAAAAAAAAAAAAAAAAAAAAAAAAAAAAAAAAAAAAAAAAAAAAAAAAAAAAAAAAAAAAAAAAAAAAAAAAAAAAAAAAAAAAAAAAAAAAAAAAAAAAAAAAAAAAAAAAAAAAAAAAAAAAAAAAAAAAAAAAAAAAAAAAAAAAAAAAAAAAAAAAAAAAAAAAAAAAAAAAAAAAAAAAAAAAAAAAAAAAAAAAAAAAAAAAAAAAAAAAAAAAAAAAAAAAAAAAAAAAAAAAAAAAAAAAAAAAAAAAAAAAAAAAAAAAAAAAAAAAAAAAAAAAAAAAAAAAAAAAAAAAAAAAAAAAAAAAAAAAAAAAAAAAAAAAAAAAAAAAAAAAAAAAAAAAAAAAAAAAAAAAAAAAAAAAAAAAAAAAAAAAAAAAAAAAAAAAAAAAAAAAAAAAAAAAAAAAAAAAAAAAAAAAAAAAAAAAAAAAAAAAAAAAAAAAAAAAAAAAAAAAAAAAAAAAAAAAAAAAAAAAAAAAAAAAAAAAAAAAAAAAAAAAAAAAAAAAAAAAAAAAAAAAAAAAAAAAAAAAAAAAAAAAAAAAAAAAAAAAAAAAAAAAAAAAAAAAAAAAAAAAAAAAAAAAAAAAAAAAAAAAAAAAAAAAAAAAAAAAAAAAAAAAAAAAAAAAAAAAAAAAAAAAAAAAAAAAAAAAAAAAAAAAAAAAAAAAAAAAAAAAAAAAAAAAAAAAAAAAAAAAAAAAAAAAAAAAAAAAAAAAAAAAAAAAAAAAAAAAAAAAAAAAAAAAAAAAAAAAAAAAAAAAAAAAAAAAAAAAAAAAAAAAAAAAAAAAAAAAAAAAAAAAAAAAAAAAAAAAAAAAAAAAAAAAAAAAAAAAAAAAAAAAAAAAAAAAAAAAAAAAAAAAAAAAAAAAAAAAAAAAAAAAAAAAAAAAAAAAAAAAAAAAAAAAAAAAAAAAAAAAAAAAAAAAAAAAAAAAAAAAAAAAAAAAAAAAAAAAAAAAAAAAAAAAAAAAAAAAAAAAAAAAAAAAAAAAAAAAAAAAAAAAAAAAAAAAAAAAAAAAAAAAAAAAAAAAAAAAAAAAAAAAAAAAAAAAAAAAAAAAAAAAAAAAAAAAAAAAAAAAAAAAAAAAAPZYQEMN56kLvnfWWJnx8rVr3sBoMdbePSkshhbLdGdhArUnPWKiokDlkHsEoD5Ql+NO0Jy0CmgEJ0ehvd2iIJ6GgEU=</c2pa:manifest></metadata>
  <defs>
    <linearGradient id="bg" x1="0" y1="0" x2="1" y2="1">
      <stop offset="0" stop-color="#070b1a"/><stop offset="0.5" stop-color="#17153f"/><stop offset="1" stop-color="#0a3b5c"/>
    </linearGradient>
    <linearGradient id="gold" x1="0" y1="0" x2="0" y2="1">
      <stop offset="0" stop-color="#fffbd0"/><stop offset="0.5" stop-color="#ffd43b"/><stop offset="1" stop-color="#f59e0b"/>
    </linearGradient>
    <linearGradient id="ice" x1="0" y1="0" x2="0" y2="1">
      <stop offset="0" stop-color="#ffffff"/><stop offset="0.6" stop-color="#bae6fd"/><stop offset="1" stop-color="#7dd3fc"/>
    </linearGradient>
    <linearGradient id="line" x1="0" y1="0" x2="1" y2="0">
      <stop offset="0" stop-color="#ffd43b"/><stop offset="1" stop-color="#38bdf8"/>
    </linearGradient>
    <linearGradient id="cA" x1="0" y1="0" x2="1" y2="0"><stop offset="0" stop-color="#f59e0b"/><stop offset="1" stop-color="#ea580c"/></linearGradient>
    <linearGradient id="cB" x1="0" y1="0" x2="1" y2="0"><stop offset="0" stop-color="#6366f1"/><stop offset="1" stop-color="#8b5cf6"/></linearGradient>
    <linearGradient id="cC" x1="0" y1="0" x2="1" y2="0"><stop offset="0" stop-color="#10b981"/><stop offset="1" stop-color="#06b6d4"/></linearGradient>
    <filter id="glow"><feGaussianBlur stdDeviation="5" result="b"/><feMerge><feMergeNode in="b"/><feMergeNode in="SourceGraphic"/></feMerge></filter>
    <filter id="blur"><feGaussianBlur stdDeviation="9"/></filter>
    <style>
      .t { font: 900 92px 'Arial Black', Impact, 'Segoe UI', sans-serif; letter-spacing: 4px; }
      .sub { font: 800 27px 'Segoe UI', Arial, sans-serif; letter-spacing: 4px; }
      .chip { font: 800 16px 'Segoe UI', Arial, sans-serif; letter-spacing: 2px; fill: #ffffff; }
      .me { font: 800 22px 'Segoe UI', Arial, sans-serif; letter-spacing: 3px; }
      .code { font: 800 20px Consolas, 'Courier New', monospace; }
      .num { font: 900 30px 'Arial Black', Impact, sans-serif; }
    </style>
  </defs>

  <rect width="1200" height="380" rx="26" fill="url(#bg)"/>
  <g opacity="0.10" stroke="#38bdf8"><line x1="0" y1="0" x2="0" y2="262"/><line x1="40" y1="0" x2="40" y2="262"/><line x1="80" y1="0" x2="80" y2="262"/><line x1="120" y1="0" x2="120" y2="262"/><line x1="160" y1="0" x2="160" y2="262"/><line x1="200" y1="0" x2="200" y2="262"/><line x1="240" y1="0" x2="240" y2="262"/><line x1="280" y1="0" x2="280" y2="262"/><line x1="320" y1="0" x2="320" y2="262"/><line x1="360" y1="0" x2="360" y2="262"/><line x1="400" y1="0" x2="400" y2="262"/><line x1="440" y1="0" x2="440" y2="262"/><line x1="480" y1="0" x2="480" y2="262"/><line x1="520" y1="0" x2="520" y2="262"/><line x1="560" y1="0" x2="560" y2="262"/><line x1="600" y1="0" x2="600" y2="262"/><line x1="640" y1="0" x2="640" y2="262"/><line x1="680" y1="0" x2="680" y2="262"/><line x1="720" y1="0" x2="720" y2="262"/><line x1="760" y1="0" x2="760" y2="262"/><line x1="800" y1="0" x2="800" y2="262"/><line x1="840" y1="0" x2="840" y2="262"/><line x1="880" y1="0" x2="880" y2="262"/><line x1="920" y1="0" x2="920" y2="262"/><line x1="960" y1="0" x2="960" y2="262"/><line x1="1000" y1="0" x2="1000" y2="262"/><line x1="1040" y1="0" x2="1040" y2="262"/><line x1="1080" y1="0" x2="1080" y2="262"/><line x1="1120" y1="0" x2="1120" y2="262"/><line x1="1160" y1="0" x2="1160" y2="262"/><line x1="0" y1="0" x2="1200" y2="0"/><line x1="0" y1="40" x2="1200" y2="40"/><line x1="0" y1="80" x2="1200" y2="80"/><line x1="0" y1="120" x2="1200" y2="120"/><line x1="0" y1="160" x2="1200" y2="160"/><line x1="0" y1="200" x2="1200" y2="200"/><line x1="0" y1="240" x2="1200" y2="240"/></g>
  <g opacity="0.22" stroke="#38bdf8" stroke-width="1"><line x1="600" y1="262" x2="-800" y2="380"/><line x1="600" y1="262" x2="-700" y2="380"/><line x1="600" y1="262" x2="-600" y2="380"/><line x1="600" y1="262" x2="-500" y2="380"/><line x1="600" y1="262" x2="-400" y2="380"/><line x1="600" y1="262" x2="-300" y2="380"/><line x1="600" y1="262" x2="-200" y2="380"/><line x1="600" y1="262" x2="-100" y2="380"/><line x1="600" y1="262" x2="0" y2="380"/><line x1="600" y1="262" x2="100" y2="380"/><line x1="600" y1="262" x2="200" y2="380"/><line x1="600" y1="262" x2="300" y2="380"/><line x1="600" y1="262" x2="400" y2="380"/><line x1="600" y1="262" x2="500" y2="380"/><line x1="600" y1="262" x2="600" y2="380"/><line x1="600" y1="262" x2="700" y2="380"/><line x1="600" y1="262" x2="800" y2="380"/><line x1="600" y1="262" x2="900" y2="380"/><line x1="600" y1="262" x2="1000" y2="380"/><line x1="600" y1="262" x2="1100" y2="380"/><line x1="600" y1="262" x2="1200" y2="380"/><line x1="600" y1="262" x2="1300" y2="380"/><line x1="600" y1="262" x2="1400" y2="380"/><line x1="600" y1="262" x2="1500" y2="380"/><line x1="600" y1="262" x2="1600" y2="380"/><line x1="600" y1="262" x2="1700" y2="380"/><line x1="600" y1="262" x2="1800" y2="380"/><line x1="600" y1="262" x2="1900" y2="380"/><line x1="600" y1="262" x2="2000" y2="380"/><line x1="0" y1="276" x2="1200" y2="276"/><line x1="0" y1="292" x2="1200" y2="292"/><line x1="0" y1="312" x2="1200" y2="312"/><line x1="0" y1="336" x2="1200" y2="336"/><line x1="0" y1="364" x2="1200" y2="364"/></g>
  <rect x="0" y="262" width="1200" height="118" fill="#070b1a" opacity="0.25"/>

  <ellipse cx="380" cy="262" rx="330" ry="12" fill="#000" opacity="0.5" filter="url(#blur)"/>
  <ellipse cx="1000" cy="300" rx="150" ry="15" fill="#000" opacity="0.55" filter="url(#blur)"/>

  <text x="76.0" y="144.0" class="t"  fill="rgb(18, 30, 90)">PYTHON OOP</text>
  <text x="75.0" y="143.0" class="t"  fill="rgb(20, 35, 95)">PYTHON OOP</text>
  <text x="74.0" y="142.0" class="t"  fill="rgb(22, 41, 100)">PYTHON OOP</text>
  <text x="73.0" y="141.0" class="t"  fill="rgb(25, 47, 106)">PYTHON OOP</text>
  <text x="72.0" y="140.0" class="t"  fill="rgb(27, 53, 111)">PYTHON OOP</text>
  <text x="71.0" y="139.0" class="t"  fill="rgb(30, 59, 117)">PYTHON OOP</text>
  <text x="70.0" y="138.0" class="t"  fill="rgb(32, 65, 122)">PYTHON OOP</text>
  <text x="69.0" y="137.0" class="t"  fill="rgb(35, 71, 127)">PYTHON OOP</text>
  <text x="68.0" y="136.0" class="t"  fill="rgb(37, 76, 133)">PYTHON OOP</text>
  <text x="67.0" y="135.0" class="t"  fill="rgb(40, 82, 138)">PYTHON OOP</text>
  <text x="66.0" y="134.0" class="t"  fill="rgb(42, 88, 144)">PYTHON OOP</text>
  <text x="65.0" y="133.0" class="t"  fill="rgb(45, 94, 149)">PYTHON OOP</text>
  <text x="64.0" y="132.0" class="t"  fill="rgb(47, 100, 154)">PYTHON OOP</text>
  <text x="63.0" y="131.0" class="t"  fill="rgb(50, 106, 160)">PYTHON OOP</text>
  <text x="62.0" y="130.0" class="t"  fill="rgb(52, 112, 165)">PYTHON OOP</text>
  <text x="61.0" y="129.0" class="t"  fill="rgb(55, 118, 171)">PYTHON OOP</text>
  
  <text x="60" y="128" class="t" fill="url(#gold)" stroke="#fffde7" stroke-width="1.5" filter="url(#glow)">PYTHON OOP</text>
  <text x="76.0" y="244.0" class="t"  fill="rgb(30, 27, 75)">MASTERY</text>
  <text x="75.0" y="243.0" class="t"  fill="rgb(34, 27, 82)">MASTERY</text>
  <text x="74.0" y="242.0" class="t"  fill="rgb(38, 27, 89)">MASTERY</text>
  <text x="73.0" y="241.0" class="t"  fill="rgb(42, 28, 96)">MASTERY</text>
  <text x="72.0" y="240.0" class="t"  fill="rgb(46, 28, 103)">MASTERY</text>
  <text x="71.0" y="239.0" class="t"  fill="rgb(50, 29, 110)">MASTERY</text>
  <text x="70.0" y="238.0" class="t"  fill="rgb(54, 29, 117)">MASTERY</text>
  <text x="69.0" y="237.0" class="t"  fill="rgb(58, 29, 124)">MASTERY</text>
  <text x="68.0" y="236.0" class="t"  fill="rgb(62, 30, 132)">MASTERY</text>
  <text x="67.0" y="235.0" class="t"  fill="rgb(66, 30, 139)">MASTERY</text>
  <text x="66.0" y="234.0" class="t"  fill="rgb(70, 31, 146)">MASTERY</text>
  <text x="65.0" y="233.0" class="t"  fill="rgb(74, 31, 153)">MASTERY</text>
  <text x="64.0" y="232.0" class="t"  fill="rgb(78, 31, 160)">MASTERY</text>
  <text x="63.0" y="231.0" class="t"  fill="rgb(82, 32, 167)">MASTERY</text>
  <text x="62.0" y="230.0" class="t"  fill="rgb(86, 32, 174)">MASTERY</text>
  <text x="61.0" y="229.0" class="t"  fill="rgb(91, 33, 182)">MASTERY</text>
  
  <text x="60" y="228" class="t" fill="url(#ice)" stroke="#ffffff" stroke-width="1.5" filter="url(#glow)">MASTERY</text>

  <text x="67.2" y="279.2" class="sub"  fill="rgb(8, 47, 73)">30-DAY JOB-READY ROADMAP</text>
  <text x="66.4" y="278.4" class="sub"  fill="rgb(10, 70, 96)">30-DAY JOB-READY ROADMAP</text>
  <text x="65.6" y="277.6" class="sub"  fill="rgb(12, 93, 120)">30-DAY JOB-READY ROADMAP</text>
  <text x="64.8" y="276.8" class="sub"  fill="rgb(14, 116, 144)">30-DAY JOB-READY ROADMAP</text>
  
  <text x="64" y="276" class="sub" fill="url(#ice)">30-DAY JOB-READY ROADMAP</text>
  <rect x="64" y="288" width="470" height="4" rx="2" fill="url(#line)"/>

  <g>
    <rect x="68" y="316" width="130" height="32" rx="8" fill="#78350f"/>
    <rect x="64" y="312" width="130" height="32" rx="8" fill="url(#cA)"/>
    <rect x="66" y="314" width="126" height="6" rx="3" fill="#fff" opacity="0.25"/>
    <text x="129.0" y="333" text-anchor="middle" class="chip">30 DAYS</text>
  </g><g>
    <rect x="212" y="316" width="200" height="32" rx="8" fill="#312e81"/>
    <rect x="208" y="312" width="200" height="32" rx="8" fill="url(#cB)"/>
    <rect x="210" y="314" width="196" height="6" rx="3" fill="#fff" opacity="0.25"/>
    <text x="308.0" y="333" text-anchor="middle" class="chip">370+ PROBLEMS</text>
  </g><g>
    <rect x="426" y="316" width="170" height="32" rx="8" fill="#064e3b"/>
    <rect x="422" y="312" width="170" height="32" rx="8" fill="url(#cC)"/>
    <rect x="424" y="314" width="166" height="6" rx="3" fill="#fff" opacity="0.25"/>
    <text x="507.0" y="333" text-anchor="middle" class="chip">6 PROJECTS</text>
  </g>

  <!-- big cube -->
  <g transform="translate(880,34) scale(1.12)">
    <polygon points="100,0 190,50 100,100 10,50" fill="#bae6fd" stroke="#f0f9ff" stroke-width="1.5"/>
    <polygon points="10,50 100,100 100,210 10,160" fill="#2b6cb0"/>
    <polygon points="100,100 190,50 190,160 100,210" fill="#1e3a8a"/>
    <polyline points="10,50 100,100 190,50" fill="none" stroke="#f0f9ff" stroke-width="1.5" opacity="0.7"/>
    <text x="64" y="56" class="code" style="fill:#1e3a8a" transform="rotate(26 64 56)">class</text>
    <text x="116" y="150" class="code" style="fill:#dbeafe" transform="skewY(-27)">self</text>
    <text x="22" y="118" class="code" style="fill:#fef9c3;font-size:17px" transform="skewY(28)">OOP</text>
  </g>

  <!-- yellow cube with 30 -->
  <g transform="translate(772,170) scale(1.25)">
    <polygon points="40,0 80,22 40,44 0,22" fill="#fef9c3" stroke="#fffde7" stroke-width="1.2"/>
    <polygon points="0,22 40,44 40,90 0,68" fill="#d97706"/>
    <polygon points="40,44 80,22 80,68 40,90" fill="#92400e"/>
    <text transform="translate(5,58) skewY(28)" class="num" style="fill:#fffbeb;font-size:26px">30</text>
  </g>

  <!-- violet cube -->
  <g transform="translate(1100,198)">
    <polygon points="30,0 60,16 30,32 0,16" fill="#ede9fe" stroke="#f5f3ff" stroke-width="1"/>
    <polygon points="0,16 30,32 30,70 0,54" fill="#7c3aed"/>
    <polygon points="30,32 60,16 60,54 30,70" fill="#4c1d95"/>
  </g>
  <g transform="translate(740,40) scale(0.55)" opacity="0.9">
    <polygon points="30,0 60,16 30,32 0,16" fill="#a7f3d0"/><polygon points="0,16 30,32 30,70 0,54" fill="#10b981"/><polygon points="30,32 60,16 60,54 30,70" fill="#047857"/>
  </g>
  <g transform="translate(1140,52) scale(0.45)" opacity="0.9">
    <polygon points="30,0 60,16 30,32 0,16" fill="#fde68a"/><polygon points="0,16 30,32 30,70 0,54" fill="#f59e0b"/><polygon points="30,32 60,16 60,54 30,70" fill="#b45309"/>
  </g>

  <text x="1138.4" y="360.4" class="me" text-anchor="end" fill="rgb(8, 47, 73)">SUDHANSHU DHANDE</text>
  <text x="1137.6" y="359.6" class="me" text-anchor="end" fill="rgb(11, 81, 108)">SUDHANSHU DHANDE</text>
  <text x="1136.8" y="358.8" class="me" text-anchor="end" fill="rgb(14, 116, 144)">SUDHANSHU DHANDE</text>
  
  <text x="1136" y="358" text-anchor="end" class="me" fill="#e0f2fe">SUDHANSHU DHANDE</text>
</svg>